<svg xmlns="http://www.w3.org/2000/svg" height="20" viewBox="40 -920 880 880" width="20"><path d="M480-106q-77.5 0-145.549-29.158-68.048-29.158-119.092-80.201-51.043-51.044-80.201-119.092Q106-402.5 106-480.009 106-558.5 135.5-626 165-693.5 217-744.75T339-825q70-29 148.804-29 75.908 0 142.552 26.5Q697-801 746.741-755.371q49.741 45.63 78.5 106.75Q854-587.5 854-518q0 93-64.75 158t-158.164 65H565q-9.5 0-16.75 5.75T541-274q0 15.947 15 27.724Q571-234.5 571-191q0 29.5-24 57.25T480-106Zm0-374Zm-213 33q23.7 0 40.35-16.65Q324-480.3 324-504q0-23.7-16.65-40.35Q290.7-561 267-561q-23.7 0-40.35 16.65Q210-527.7 210-504q0 23.7 16.65 40.35Q243.3-447 267-447Zm119-142q23.7 0 40.35-16.65Q443-622.3 443-646q0-23.7-16.65-40.35Q409.7-703 386-703q-23.7 0-40.35 16.65Q329-669.7 329-646q0 23.7 16.65 40.35Q362.3-589 386-589Zm189 0q23.7 0 40.35-16.65Q632-622.3 632-646q0-23.7-16.65-40.35Q598.7-703 575-703q-23.7 0-40.35 16.65Q518-669.7 518-646q0 23.7 16.65 40.35Q551.3-589 575-589Zm118 142q23.7 0 40.35-16.65Q750-480.3 750-504q0-23.7-16.65-40.35Q716.7-561 693-561q-23.7 0-40.35 16.65Q636-527.7 636-504q0 23.7 16.65 40.35Q669.3-447 693-447ZM480.158-173q10.842 0 17.342-8.5Q504-190 504-197q0-16-14.5-28.5T475-275q0-37.5 25.75-62.25T564-362h67q66 0 111-45.25T787-518q0-112.5-87.25-190.75T487.914-787Q356.5-787 264.75-697.453T173-480q0 127.5 89.75 217.25T480.158-173Z"/></svg>