<svg xmlns="http://www.w3.org/2000/svg" width="16" height="16" fill="currentColor" viewBox="80 -880 800 800">
	<path fill="currentColor" stroke-width="12.5" d="m402.384-120-13.461-113.692q-16.154-6.769-38.923-19.154-22.769-12.385-37.385-24.538L207.923-233l-77.616-135 89.231-67.539q-.769-9.846-1.923-21.846t-1.154-21.846q0-9.077 1.154-20.692t1.923-24.538L130.307-592l77.616-133.462 103.923 43.616q16.923-12.923 37.769-24.923 20.846-12 38.539-19.539L402.384-840h155.232l13.461 114.461q20 9.077 38.154 19.539 18.154 10.461 35.846 24.154l107-43.616L829.693-592l-91.308 69.846q2.308 11.385 2.692 22.231.385 10.846.385 19.923 0 8.308-.769 19.154-.77 10.846-1.539 24.538L828.923-368l-77.615 135-106.231-45.154q-17.692 13.693-36.615 24.923-18.923 11.231-37.385 18.77L557.616-120H402.384Zm74.539-257q42.846 0 72.923-30.077 30.077-30.077 30.077-72.923 0-42.846-30.077-72.923Q519.769-583 476.923-583q-42.077 0-72.539 30.077-30.461 30.077-30.461 72.923 0 42.846 30.461 72.923Q434.846-377 476.923-377Zm0-44q-24 0-41.5-17.5t-17.5-41.5q0-24 17.5-41.5t41.5-17.5q24 0 41.5 17.5t17.5 41.5q0 24-17.5 41.5t-41.5 17.5ZM481-480Zm-41 316h79.231L532-270.308q28.231-8 52.923-22.461 24.692-14.462 49.769-38.769L732.462-289l40.769-66-86.539-65.769q5-17.077 6.616-30.923 1.615-13.846 1.615-28.308 0-13.231-1.615-25.808-1.616-12.577-5.616-30.884L775.769-605 735-671l-100.077 42.769q-19.154-19.923-48.731-37.346t-53.961-23.115L520-796h-80.769l-11.462 106.538q-28.231 6.462-53.577 20.808-25.346 14.346-50.423 39.423L226-671l-40.769 66L270-539.231q-4 14.462-6 30.231-2 15.769-2 29.769 0 13.231 2 27.731 2 14.5 5.231 29.731l-84 66.769L226-289l97-41q23.538 22.769 48.885 37.115 25.346 14.347 55.115 22.347L440-164Z"></path>
</svg>