<svg xmlns="http://www.w3.org/2000/svg" viewBox="100 -890 760 760"><path d="M 375.5 -124.5 V -333.128 Q 311.983 -338.344 249.488 -347.013 Q 186.992 -355.681 124.5 -370 L 139 -427.5 Q 223.05 -407.5 308.184 -399.25 T 480.454 -391 Q 566.59 -391 651.732 -399.25 T 821 -427.5 L 835.5 -370 Q 773 -355.681 710.69 -346.904 Q 648.381 -338.126 584.5 -333.25 V -124.5 H 375.5 M 480 -429 A 1 1 0 0 0 480 -624 A 1 1 0 0 0 480 -429 Z Z M 173.402 -564.5 Q 153 -564.5 138.75 -578.75 T 124.5 -613.392 Q 124.5 -633 138.75 -647.5 Q 153 -662 173.392 -662 Q 193 -662 207.5 -647.438 Q 222 -632.875 222 -613.402 Q 222 -593 207.438 -578.75 Q 192.875 -564.5 173.402 -564.5 Z M 786.902 -564.5 Q 766.5 -564.5 752.25 -578.75 T 738 -613.392 Q 738 -633 752.25 -647.5 Q 766.5 -662 786.892 -662 Q 806.5 -662 821 -647.438 Q 835.5 -632.875 835.5 -613.402 Q 835.5 -593 820.938 -578.75 Q 806.375 -564.5 786.902 -564.5 Z M 292.158 -714.5 Q 272 -714.5 258 -728.854 T 244 -763.377 Q 244 -782.771 258 -797.385 Q 272 -812 292.392 -812 Q 312 -812 326.75 -797.438 Q 341.5 -782.875 341.5 -763.402 Q 341.5 -743 326.72 -728.75 Q 311.941 -714.5 292.158 -714.5 Z M 667.158 -714.5 Q 647 -714.5 633 -728.854 T 619 -763.377 Q 619 -782.771 633 -797.385 Q 647 -812 667.392 -812 Q 687 -812 701.75 -797.438 Q 716.5 -782.875 716.5 -763.402 Q 716.5 -743 701.72 -728.75 Q 686.941 -714.5 667.158 -714.5 Z M 479.658 -778 Q 459.5 -778 445.5 -792 T 431.5 -826.383 Q 431.5 -845.983 445.5 -860.741 Q 459.5 -875.5 479.883 -875.5 Q 499.483 -875.5 514.241 -860.72 Q 529 -845.941 529 -826.158 Q 529 -806 514.22 -792 Q 499.441 -778 479.658 -778 Z"/></svg>