<svg xmlns="http://www.w3.org/2000/svg" width="16" height="16" fill="currentColor" viewBox="0 0 16 16">
  <path d="M 7.789 2.047 a 0.5 0.5 90 0 1 0.422 0 l 7.5 3.5 a 0.5 0.5 90 0 1 -0.025 0.917 l -7.5 3 a 0.5 0.5 90 0 1 -0.372 0 L 2 7.14 V 13 a 1 1 90 0 1 1 1 v 2 h -3 v -2 a 1 1 90 0 1 1 -1 V 6.739 l -0.686 -0.275 a 0.5 0.5 90 0 1 -0.025 -0.917 l 7.5 -3.5 Z"/>
  <path d="M4.176 9.032a.5.5 0 0 0-.656.327l-.5 1.7a.5.5 0 0 0 .294.605l4.5 1.8a.5.5 0 0 0 .372 0l4.5-1.8a.5.5 0 0 0 .294-.605l-.5-1.7a.5.5 0 0 0-.656-.327L8 10.466 4.176 9.032Z"/>
</svg>