<svg xmlns="http://www.w3.org/2000/svg" height="20" viewBox="0 -960 960 960" width="20">
<path d="M219.693-341.924q-16.154-29.769-26.923-64.73-10.769-34.962-10.769-74.346 0-116.769 78.807-202.884Q339.616-769.999 458-777.999h22.233L425.232-833l56.153-56.153L631.537-739 481.385-588.847 425.232-643l56.001-56.001H459q-83.231 6-141.116 68.385Q259.999-568.231 259.999-481q0 23.846 4.423 44.654 4.423 20.807 11.269 38.423l-55.998 55.999ZM478.615-74.847 328.463-225l150.152-150.153L534.768-321l-56.001 56.001H501q83.231-6 141.116-68.385Q700.001-395.769 700.001-483q0-23.846-4.423-44.654-4.423-20.807-11.269-38.423l55.998-55.999q16.154 29.769 26.923 64.73 10.769 34.962 10.769 74.346 0 115.769-78.807 202.384Q620.384-194.001 502-186.001h-22.233L534.768-131l-56.153 56.153Z">
<animateTransform
      id="logs_autorefresh"
      attributeName="transform"
      attributeType="XML"
      begin="indefinite"
      type="rotate"
      from="0 480 -480"
      to="360 480 -480"
      dur="2s"
      repeatCount="indefinite" />

</path>
</svg>