<svg xmlns="http://www.w3.org/2000/svg" height="16" viewBox="0 -960 960 960" width="16"><path d="m337-281.847 143-143 143 143L678.153-337l-143-143 143-143L623-678.153l-143 143-143-143L281.847-623l143 143-143 143L337-281.847ZM480.067-84.002q-81.476 0-153.684-30.939-72.209-30.94-126.342-85.05-54.134-54.111-85.087-126.289-30.953-72.177-30.953-153.653 0-82.732 30.999-154.666 30.999-71.933 85.21-126.234 54.212-54.3 126.288-84.733 72.075-30.433 153.435-30.433 82.722 0 154.648 30.42 71.925 30.42 126.238 84.71 54.314 54.291 84.747 126.212t30.433 154.673q0 81.753-30.42 153.621-30.42 71.869-84.697 126.103-54.278 54.235-126.18 85.247-71.903 31.012-154.635 31.012Z"/></svg>