<svg xmlns="http://www.w3.org/2000/svg" height="20" viewBox="50 -910 860 860" width="20"><path d="m619.576-438.078-46.191-46.191q4.807-43.924-24.597-69.423-29.404-25.5-64.519-20.693l-46.191-46.098q9.538-3.17 20.672-4.458 11.135-1.289 21.192-1.289 61.582 0 103.935 42.353t42.353 103.935q0 10.057-1.289 21.73-1.288 11.673-5.365 20.134Zm128.5 128.539-34.422-34.391q35-27.262 65.179-61.204 30.179-33.941 50.129-74.866-48.193-99.885-142.731-156.731Q591.692-693.577 480-693.577q-25.192 0-51.404 3.404-26.211 3.404-49.711 10.404l-39.884-39.884q33.808-12.577 70.153-17.23 36.346-4.654 70.846-4.654 129.365 0 240.451 69.923 111.086 69.922 161.125 191.644-21.231 49.97-54.866 91.873-33.634 41.904-78.634 78.558Zm14.347 179.806L642.308-250.809q-32.654 14.577-74.264 23.461-41.611 8.885-88.044 8.885-129.675 0-240.317-69.923Q129.04-358.308 78.425-479.918q23.153-56.274 62.231-103.101 39.077-46.827 87.423-82.019l-99.154-100 33.922-33.923 634.306 635.306-34.73 33.922ZM262.809-630.116q-37.693 26.423-74.462 65.154-36.77 38.731-57.309 84.962 48.193 99.885 142.731 156.731Q368.308-266.423 480-266.423q34.616 0 69.059-5.712 34.443-5.711 57.481-14.25l-61.322-60.463q-13.14 6.154-31.41 9.616-18.269 3.462-33.857 3.462-61.412 0-103.796-42.337Q333.77-418.443 333.77-480q0-15.104 4.462-32.827 4.462-17.724 8.616-31.674l-84.039-85.615Zm262.46 103.731Zm-69.498 83.038Z"/></svg>