<svg xmlns="http://www.w3.org/2000/svg" style='height:auto;' viewBox="110 -750 820 640"><path d="M528-212.001H180.309q-27.008 0-45.658-18.662-18.65-18.662-18.65-45.686v-407.626q0-27.024 18.65-45.524t45.658-18.5h599.382q27.008 0 45.658 18.65 18.65 18.65 18.65 45.658V-480H792v-203.691q0-5.385-3.462-8.847-3.462-3.462-8.847-3.462H180.309q-5.385 0-8.847 3.462-3.462 3.462-3.462 8.847v407.382q0 5.385 3.462 8.847 3.462 3.462 8.847 3.462H528v51.999ZM394.001-330.463v-299.074L629.537-480 394.001-330.463ZM735-91.849l-8.154-43.307q-19.385-5-34-13.731-14.616-8.731-26.77-20.423l-41.922 15.076-23.538-38.075 32.154-31.538q-5.693-17.847-5.693-36.693 0-18.846 5.693-36.693l-32.154-30.538 23.538-39.075 40.922 14.076q12.154-12.692 27.27-21.423 15.115-8.731 34.5-13.731L736-431.231h43.999l9.153 43.307q19.385 5 34.501 13.539 15.115 8.538 27.269 20.846l40.922-12.307 23.538 37.306-31.153 29.538q4.692 19.616 4.692 38.13 0 18.514-5.692 37.025l32.153 30.538-23.538 38.075-41.922-14.076q-12.154 11.692-26.769 20.423-14.616 8.731-34.001 13.423l-10.153 43.615H735Zm23.212-94.614q30.941 0 52.903-22.174 21.961-22.174 21.961-53.115 0-30.942-22.174-52.904-22.174-21.961-53.115-21.961-30.942 0-52.903 22.174-21.962 22.174-21.962 53.115 0 30.942 22.174 52.904 22.174 21.961 53.116 21.961Z"/></svg>