<svg xmlns="http://www.w3.org/2000/svg" viewBox="80 -880 800 800" ><path d="m216.769-535.152 88 37.231q16.308-32.616 34.77-63.039 18.462-30.424 40.693-59.885l-58.693-11.385q-3.077-.769-5.962.192-2.884.962-5.192 3.27l-93.616 93.616Zm135.845 74.922 113.616 113q44.692-18.692 92.692-51.692 48-33 91.154-76.154 67.308-67.308 104.115-146.653 36.808-79.346 36.423-163.27-83.924-.384-163.385 36.423-79.461 36.808-146.768 104.115-43.154 43.154-76.154 91.347-33 48.192-51.693 92.884Zm192.617-80.001q-20.308-20.307-20.308-49.384 0-29.076 20.308-49.384 20.307-20.307 49.884-20.307 29.576 0 49.884 20.307 20.307 20.308 20.307 49.384 0 29.077-20.307 49.384-20.308 20.308-49.884 20.308-29.577 0-49.884-20.308Zm-4.464 329.462 93.617-93.616q2.307-2.308 3.269-5.192.962-2.885.192-5.962l-11.384-58.693q-29.462 22.231-59.885 40.385-30.424 18.154-63.04 34.462l37.231 88.616Zm304.538-629.152q12.846 115.615-27.346 219.153T685.691-425.154l-3.462 3.461-3.462 3.462 18.077 90.538q3.615 18.077-1.615 35.154-5.231 17.076-18.077 29.923l-156.846 156.46-75.153-176.614-156.768-156.768-176.614-75.538 155.845-156.46q12.847-12.846 30.231-18.269 17.384-5.424 35.461-1.808l91.307 18.461q1.924-1.923 3.27-3.462 1.346-1.538 3.269-3.461 92.076-92.076 195.306-132.384 103.23-40.307 218.845-27.462ZM180.848-317.154q29.23-29.23 71.268-29.345 42.038-.116 71.268 29.115 29.231 29.23 28.923 71.268-.308 42.038-29.538 71.268-22.692 22.692-74.461 38.961t-132.844 26.038q9.769-81.075 26.23-132.844 16.462-51.768 39.154-74.461Zm42.768 42.538q-10.769 10.769-20.769 37.077-10 26.308-13.616 53.692 27.385-3.615 53.693-13.5 26.307-9.884 37.077-20.654 12-12 12.615-28.807.615-16.808-11.385-28.808t-28.807-11.5q-16.808.5-28.808 12.5Z"/></svg>