<svg xmlns="http://www.w3.org/2000/svg" viewBox="120 -850 730 730"><path d="M140.001-585.924v-67.691l181.77-181.769h67.691l-249.461 249.46Zm0-179.46v-58.461l11.54-11.539h58.46l-70 70Zm483.92 58.153q-8.461-8.308-18.038-16.307-9.577-8-19.269-14.077l97.77-97.769h67.691L623.921-707.231ZM201.537-352.538l100.848-100.848q5.846 9.846 11.615 17.692t12.846 14.693l-28.848 28.848q-23.384 6.231-48.615 16.538-25.231 10.308-47.846 23.077Zm481.154-233.156V-586.925q-.769-13.615-3.962-27.769-3.192-14.153-8.423-26.537l149.693-149.693v67.922L682.691-585.694Zm-253.615-175.69 74.617-74h67.691l-70.155 70.154q-6.769-1.231-12.922-1.846-6.154-.615-12.923-.615-11 .384-23.154 2.154-12.154 1.769-23.154 4.153ZM140.001-404.618v-67.691l138.615-138.615q-2.769 11.77-4.346 23.347Q272.693-576 272.693-565q0 6.769.616 12.922.615 6.154 1.846 12.307L140.001-404.618Zm643.226 79.539q-7.615-8.539-16.576-16.269-8.962-7.731-19.423-14.807l72.771-72.771v67.691l-36.772 36.156Zm-97.921-82.77q-2.385-4.923-5.346-9.346-2.961-4.423-6.115-8.731-3.999-5.308-8.461-10.616-4.461-5.308-9.23-9.616l163.845-164.459v68.691L685.306-407.849ZM480-420.001q-57.922 0-98.961-41.038-41.038-41.039-41.038-98.961t41.038-98.961q41.039-41.038 98.961-41.038t98.961 41.038q41.038 41.039 41.038 98.961t-41.038 98.961Q537.922-420.001 480-420.001ZM480-480q33 0 56.5-23.5T560-560q0-33-23.5-56.5T480-640q-33 0-56.5 23.5T400-560q0 33 23.5 56.5T480-480ZM180.001-140.001v-63.692q0-30.923 16.039-55.5 16.038-24.576 42.576-38.038 49.847-24.846 110.885-41.5Q410.539-355.384 480-355.384t130.499 16.653q61.038 16.654 110.885 41.5 26.153 13.077 42.384 38.038 16.231 24.962 16.231 55.5v63.692H180.001ZM240.615-200h478.77q-1.231-17.462-7-27.424-5.77-9.962-19.155-16.27-36.769-18-90.538-34.846Q548.923-295.386 480-295.386T357.308-278.54q-53.769 16.846-90.538 34.846-13.001 6.308-18.962 16.578-5.962 10.269-7.193 27.116ZM480-200Zm0-360Z"/></svg>