<svg xmlns="http://www.w3.org/2000/svg" width="16" height="16" fill="currentColor" viewBox="0 0 16 16">
  <circle cx="8" cy="8" r="6" fill="white"/>
  <path d="M 8.982 1.566 A 1.13 1.13 90 0 0 7.022 1.566 L 0.165 13.233 C -0.292 14.011 0.256 15 1.145 15 H 14.858 C 15.747 15 16.296 14.01 15.838 13.233 L 8.982 1.566 Z M 8 5 L 8 4.875 C 8.625 4.875 9.125 5.25 9.125 5.875 L 8.55 9.627 A 0.552 0.552 90 0 1 7.45 9.627 L 6.875 5.875 C 6.875 5.25 7.375 4.875 8 4.875 Z M 8.002 11.25 A 1 1 90 1 1 8.002 13.25 A 1 1 90 0 1 8.002 11.25 Z"/>
</svg>