<svg xmlns="http://www.w3.org/2000/svg" height="20" viewBox="100 -860 760 760" width="20"><path d="M479.5-146.5q-139.5 0-236.25-40.85T146.5-288v-384q0-59 97.25-100.25T479.5-813.5q138 0 236 41.25t98 100.25v384q0 59.3-97.5 100.4-97.5 41.1-236.5 41.1Zm.467-459q83.533 0 162.033-20.75Q720.5-647 744.5-676q-24-28-103.25-49.25T479.972-746.5q-83.472 0-162.972 21-79.5 21-101.5 49.5Q238-646.5 316-626t163.967 20.5Zm.033 196q40.5 0 78.5-4.5t72-12.5q34-8 63.5-20.25T746.5-475v-120.5q-25.247 13.722-55.374 24.611Q661-560 626.668-552.652q-34.332 7.348-71.5 11T479.502-538q-38.498 0-75.865-3.652t-71.502-11Q298-560 267.75-571q-30.25-11-54.25-24.5V-475q23.914 15.444 52.707 27.972T329.25-426.5q34.25 8 72.25 12.5t78.5 4.5Zm.319 196q43.319 0 88.551-6.645 45.231-6.645 83.15-17.401 37.919-10.756 63.845-24.503 25.926-13.747 30.635-27.451v-107q-25.247 12.722-55.624 23.111Q660.5-363 625.918-356.402q-34.582 6.598-71.5 10.25t-74.916 3.652q-38.498 0-75.865-3.652t-71.252-10.5Q298.5-363.5 268-373.75 237.5-384 213.5-397v109.5q5 13 30.75 26.5t63.5 23.75q37.75 10.25 83 17t89.569 6.75Z"/></svg>