<svg xmlns="http://www.w3.org/2000/svg" height="20" viewBox="0 -960 960 960" width="20"><path d="M 695.789 -588 Q 711 -588 721.5 -577.711 q 10.5 10.29 10.5 25.5 Q 732 -537 721.711 -526.5 q -10.29 10.5 -25.5 10.5 Q 681 -516 670.5 -526.289 q -10.5 -10.29 -10.5 -25.5 Q 660 -567 670.289 -577.5 q 10.29 -10.5 25.5 -10.5 Z m -0 -144 Q 711 -732 721.5 -721.711 q 10.5 10.29 10.5 25.5 Q 732 -681 721.711 -670.5 q -10.29 10.5 -25.5 10.5 Q 681 -660 670.5 -670.289 q -10.5 -10.29 -10.5 -25.5 Q 660 -711 670.289 -721.5 q 10.29 -10.5 25.5 -10.5 Z m 0 288 Q 711 -444 721.5 -433.711 q 10.5 10.29 10.5 25.5 Q 732 -393 721.711 -382.5 q -10.29 10.5 -25.5 10.5 Q 681 -372 670.5 -382.289 q -10.5 -10.29 -10.5 -25.5 Q 660 -423 670.289 -433.5 q 10.29 -10.5 25.5 -10.5 Z M 816 -432 q 9.6 -0 16.8 7.2 q 7.2 7.2 7.2 16.8 q 0 9.6 -7.2 16.8 q -7.2 7.2 -16.8 7.2 q -9.6 0 -16.8 -7.2 q -7.2 -7.2 -7.2 -16.8 q -0 -9.6 7.2 -16.8 q 7.2 -7.2 16.8 -7.2 Z m -120.211 132 Q 711 -300 721.5 -289.711 q 10.5 10.29 10.5 25.5 Q 732 -249 721.711 -238.5 q -10.29 10.5 -25.5 10.5 Q 681 -228 670.5 -238.289 q -10.5 -10.29 -10.5 -25.5 Q 660 -279 670.289 -289.5 q 10.29 -10.5 25.5 -10.5 Z M 816 -576 q 9.6 -0 16.8 7.2 q 7.2 7.2 7.2 16.8 q 0 9.6 -7.2 16.8 q -7.2 7.2 -16.8 7.2 q -9.6 0 -16.8 -7.2 q -7.2 -7.2 -7.2 -16.8 q -0 -9.6 7.2 -16.8 q 7.2 -7.2 16.8 -7.2 Z m -264 -264 q 9.6 -0 16.8 7.2 q 7.2 7.2 7.2 16.8 q 0 9.6 -7.2 16.8 q -7.2 7.2 -16.8 7.2 q -9.6 0 -16.8 -7.2 q -7.2 -7.2 -7.2 -16.8 q -0 -9.6 7.2 -16.8 q 7.2 -7.2 16.8 -7.2 Z m 0 672 q 9.6 -0 16.8 7.2 q 7.2 7.2 7.2 16.8 q 0 9.6 -7.2 16.8 q -7.2 7.2 -16.8 7.2 q -9.6 0 -16.8 -7.2 q -7.2 -7.2 -7.2 -16.8 q -0 -9.6 7.2 -16.8 q 7.2 -7.2 16.8 -7.2 Z m -0.211 -132 Q 567 -300 577.5 -289.711 q 10.5 10.29 10.5 25.5 Q 588 -249 577.711 -238.5 q -10.29 10.5 -25.5 10.5 Q 537 -228 526.5 -238.289 q -10.5 -10.29 -10.5 -25.5 Q 516 -279 526.289 -289.5 q 10.29 -10.5 25.5 -10.5 Z M 552 -600 q 20 -0 34 14 t 14 34 q 0 20 -14 34 t -34 14 q -20 0 -34 -14 t -14 -34 q -0 -20 14 -34 t 34 -14 Z m 0 144 q 20 -0 34 14 t 14 34 q 0 20 -14 34 t -34 14 q -20 0 -34 -14 t -14 -34 q -0 -20 14 -34 t 34 -14 Z m -0.211 -276 Q 567 -732 577.5 -721.711 q 10.5 10.29 10.5 25.5 Q 588 -681 577.711 -670.5 q -10.29 10.5 -25.5 10.5 Q 537 -660 526.5 -670.289 q -10.5 -10.29 -10.5 -25.5 Q 516 -711 526.289 -721.5 q 10.29 -10.5 25.5 -10.5 Z M 480 -816 v 72 q -110 1 -187 78.03 q -77 77.031 -77 186 Q 216 -371 293 -294 t 187 78 v 72 q -69 -1 -130.5 -27.5 t -107.023 -72.121 q -45.522 -45.62 -72 -106.603 Q 144 -411.207 144 -480.103 q -0 -68.897 26.477 -129.821 q 26.478 -60.923 72 -106.5 Q 288 -762 349.5 -788.5 Q 411 -815 480 -816 Z m -1 336 Z"/></svg>