<svg xmlns="http://www.w3.org/2000/svg" height="20" viewBox="70 -890 820 820" width="20"><path d="m 442.001 -262.001 h 77.998 h 46.001 v -38 h -49 v -227.999 h -115 v 39 l 40 10 v 178.999 h -48.999 v 38 z M 480.343 -84.001 q -81.752 0 -153.96 -30.94 q -72.209 -30.94 -126.342 -85.05 q -54.134 -54.111 -85.087 -126.247 q -30.953 -72.136 -30.953 -154.153 q 0 -82.274 30.999 -154.208 q 30.999 -71.933 85.21 -126.234 q 54.212 -54.3 126.246 -84.733 q 72.034 -30.433 153.935 -30.433 q 82.264 0 154.19 30.42 q 71.925 30.42 126.238 84.71 q 54.314 54.291 84.747 126.437 q 30.433 72.145 30.433 154.173 t -30.42 153.896 q -30.42 71.869 -84.697 126.103 q -54.278 54.235 -126.405 85.247 q -72.127 31.012 -154.134 31.012 z m -0.343 -77.999 q 132.513 0 225.256 -92.744 q 92.744 -92.743 92.744 -225.256 t -92.744 -225.256 q -92.743 -92.744 -225.256 -92.744 t -225.256 92.744 q -92.744 92.743 -92.744 225.256 t 92.744 225.256 q 92.743 92.744 225.256 92.744 z z M 475 -691 a 1 1 0 0 0 0 97 a 1 1 0 0 0 0 -97"/></svg>