<?xml version="1.0" encoding="utf-8"?>
<svg viewBox="0 0 28 28" xmlns="http://www.w3.org/2000/svg"><path d="M 27 18.5 V 21.2 Q 27 21.4031 26.8516 21.5516 T 26.5 21.7 H 6 V 24.85 Q 6 25.0531 5.8516 25.2016 T 5.5 25.35 Q 5.3125 25.35 5.125 25.1937 L 0 19.85 L 5.1406 14.4905 Q 5.2812 14.3499 5.5 14.3499 Q 5.7031 14.3499 5.8516 14.4983 T 6 14.8499 V 17.9999 H 26.5 Q 26.7031 17.9999 26.8516 18.1483 T 27 18.4999 Z M 28 8.75 L 22.8594 14.1094 Q 22.7188 14.25 22.5 14.25 Q 22.2969 14.25 22.1484 14.1016 T 22 13.75 V 10.6 H 1.5 Q 1.2969 10.6 1.1484 10.4516 T 1 10.1 V 7.4 Q 1 7.1969 1.1484 7.0484 T 1.5 6.9 H 22 V 3.75 Q 22 3.5312 22.1406 3.3906 T 22.5 3.25 Q 22.6875 3.25 22.875 3.4063 Z"/></svg>