<svg xmlns="http://www.w3.org/2000/svg" fill="currentColor" viewBox="0 0 16 16">
  <path fill-rule="evenodd" d="M 1 8 A 7 7 90 1 1 3.898 13.673 C 3.731 13.552 3.682 13.267 3.896 13.053 L 5.696 11.253 A 3.5 3.5 90 0 0 10.268 10.925 L 11.682 9.51 A 0.5 0.5 90 0 0 11.682 8.803 L 11.1 8.2 L 12.7 6.5 A 0.5 0.5 90 1 0 11.7 5.6 L 10.1 7.2 L 9 6.1 L 10.6 4.5 A 0.5 0.5 90 1 0 9.6 3.6 L 8 5.1 L 7.439 4.561 A 0.5 0.5 90 0 0 6.732 4.561 L 5.318 5.975 A 3.5 3.5 90 0 0 4.99 10.546 L 3.19 12.346 C 2.61 12.926 2.57 13.946 3.311 14.483 A 8 8 90 1 0 0 8 A 0.5 0.5 90 0 0 1 8 Z"/>
</svg>