<svg xmlns="http://www.w3.org/2000/svg" height="20" viewBox="100 -860 760 760" width="20"><path d="M480-441q-19.152 0-33.326-14.174T432.5-488.5v-312.13q0-19.153 14.174-33.327T480-848.131q19.152 0 33.326 14.174T527.5-800.63v312.13q0 19.152-14.174 33.326T480-441Zm0 329.131q-76.435 0-143.489-29.098-67.055-29.098-116.75-78.794-49.696-49.695-78.794-116.75Q111.869-403.565 111.869-480q0-67.522 23.663-130.022 23.663-62.5 67.468-113.739 13.435-16.152 33.445-17.13 20.011-.979 34.925 13.695 13.673 13.435 14.032 33.207t-11.598 34.685q-31.847 38.043-49.391 83.63Q206.87-530.087 206.87-480q0 113.804 79.663 193.467Q366.196-206.87 480-206.87q113.804 0 193.467-79.663Q753.13-366.196 753.13-480q0-49.848-16.543-96.435-16.544-46.587-49.391-83.63-11.957-15.152-12.598-34.424t13.032-32.707q14.914-14.674 35.925-13.695 21.01.978 34.445 17.13 44.805 51.239 67.468 113.739 22.663 62.5 22.663 130.022 0 76.435-29.098 143.489-29.098 67.055-78.794 116.75-49.695 49.696-116.75 78.794Q556.435-111.869 480-111.869Z"/></svg>