<svg xmlns="http://www.w3.org/2000/svg" height="24" viewBox="0 -960 960 960" width="24"><path d="M739.218-699.218H220.782v-160h518.436v160Zm-31.653 263.524q20.391 0 34.435-13.938 14.043-13.938 14.043-34.541 0-20.392-13.937-34.718-13.938-14.326-34.541-14.326-20.392 0-34.718 14.326-14.326 14.326-14.326 34.718 0 20.391 14.326 34.435 14.326 14.044 34.718 14.044Zm-74.348 242.477v-116.476H326.783v116.476h306.434ZM739.218-91.172H220.782v-173.001h-160V-520q0-58.348 40.11-98.783 40.111-40.435 97.412-40.435h563.392q58.447 0 97.985 40.435 39.537 40.435 39.537 98.783v255.827h-160v173Z"/></svg>