<svg xmlns="http://www.w3.org/2000/svg" height="32" viewBox="110 -850 740 740" width="32"><path d="M 480.343 -116.001 Q 405.231 -116.001 338.863 -144.421 Q 272.494 -172.841 222.681 -222.631 Q 172.867 -272.422 144.434 -338.718 T 116.001 -480.391 Q 116.001 -555.769 144.421 -621.637 Q 172.841 -687.506 222.631 -737.319 Q 272.422 -787.133 338.718 -815.566 T 480.391 -843.999 Q 555.769 -843.999 621.637 -815.579 Q 687.506 -787.159 737.319 -737.369 Q 787.133 -687.578 815.566 -621.516 T 843.999 -480.343 Q 843.999 -405.231 815.579 -338.863 Q 787.159 -272.494 737.369 -222.681 Q 687.578 -172.867 621.516 -144.434 T 480.343 -116.001 Z M 480 -168 Q 610 -168 701 -259 T 792 -480 Q 792 -545 768 -601.5 T 701 -701 L 260 -260 Q 302 -217 358.5 -192.5 T 480 -168 Z M 475.385 -332.924 V -388.615 H 675.076 V -332.924 H 475.385 Z M 336.77 -485.539 H 392.461 V -567.539 H 474.461 V -623.23 H 392.461 V -705.23 H 336.77 V -623.23 H 254.77 V -567.539 H 336.77 V -485.539 Z"/></svg>