<svg xmlns="http://www.w3.org/2000/svg" width="16" height="16" viewBox="0 0 16 16">
  <path fill="#fff3cd" d="M 7.938 2.016 A 0.13 0.13 0 0 1 8.002 2 A 0.13 0.13 0 0 1 8.065 2.016 A 0.146 0.146 0 0 1 8.119 2.073 L 14.976 13.74 C 15.012 13.8 15.011 13.864 14.978 13.923 A 0.163 0.163 0 0 1 14.924 13.983 A 0.116 0.116 0 0 1 14.858 14 H 1.146 A 0.115 0.115 0 0 1 1.08 13.983 A 0.163 0.163 0 0 1 1.026 13.923 A 0.176 0.176 0 0 1 1.028 13.74 L 7.884 2.073 A 0.147 0.147 0 0 1 7.938 2.016 Z"/>
  <path fill="red" d="M7.938 2.016A.13.13 0 0 1 8.002 2a.13.13 0 0 1 .063.016.146.146 0 0 1 .054.057l6.857 11.667c.036.06.035.124.002.183a.163.163 0 0 1-.054.06.116.116 0 0 1-.066.017H1.146a.115.115 0 0 1-.066-.017.163.163 0 0 1-.054-.06.176.176 0 0 1 .002-.183L7.884 2.073a.147.147 0 0 1 .054-.057zm1.044-.45a1.13 1.13 0 0 0-1.96 0L.165 13.233c-.457.778.091 1.767.98 1.767h13.713c.889 0 1.438-.99.98-1.767L8.982 1.566z"/>
  <path fill="black" d="M 9.05 6.55 a 0.6335 0.6335 90 0 0 -2.1 0 l 0.665 3.1514 a 0.3864 0.3864 90 0 0 0.77 0 l 0.665 -3.1514 Z M 8.0014 10.925 a 0.7 0.7 90 1 0 -0.0014 1.75 a 0.7 0.7 90 0 0 0.0014 -1.75 Z"/>  
</svg>