<?xml version="1.0" encoding="UTF-8"?>
<svg width="16" height="16" fill="currentColor" version="1.1" viewBox="0 0 16 16" xmlns="http://www.w3.org/2000/svg">
 <path d="m1.3 8.8c1.15 1.9 3.479 4.071 6.7 6.2 3.221-2.129 5.523-4.36 6.75-6.2h-4.35c-0.2 0-0.3-0.05-0.4-0.2l-0.65-1.65-1.05 4.75c-0.45 1.2-0.95 1.2-1.4 0l-1.65-8.7-0.95 5.5c-0.046002 0.2-0.15 0.3-0.35 0.3z"/>
 <path d="m0.88 8c-3.307-6.32 3.53-10 6.943-6.857 0.06 0.055 0.119 0.112 0.176 0.171 0.056421-0.058946 0.11513-0.11566 0.176-0.17 3.415-3.144 10.251 0.536 6.945 6.856h-4.5239l-0.5461-1.4c-0.55-1.6-1.05-1.6-1.45 0l-1 4.6-1.55-8.4c-0.6-1.6-1.1-1.65-1.6 0l-0.89099 5.2z"/>
</svg>
