<svg xmlns="http://www.w3.org/2000/svg" width="160" height="160" fill="currentColor" class="bi bi-shuffle" viewBox="0 0 20 20">
  <path stroke-width="1" stroke="currentColor" fill-rule="evenodd" d="M0 3.5A.5.5 0 0 1 .5 3H1c2.202 0 3.827 1.24 4.874 2.418.49.552.865 1.102 1.126 1.532.26-.43.636-.98 1.126-1.532C9.173 4.24 10.798 3 13 3v1c-1.798 0-3.173 1.01-4.126 2.082A9.624 9.624 0 0 0 7.556 8a9.624 9.624 0 0 0 1.317 1.918C9.828 10.99 11.204 12 13 12v1c-2.202 0-3.827-1.24-4.874-2.418A10.595 10.595 0 0 1 7 9.05c-.26.43-.636.98-1.126 1.532C4.827 11.76 3.202 13 1 13H.5a.5.5 0 0 1 0-1H1c1.798 0 3.173-1.01 4.126-2.082A9.624 9.624 0 0 0 6.444 8a9.624 9.624 0 0 0-1.317-1.918C4.172 5.01 2.796 4 1 4H.5a.5.5 0 0 1-.5-.5z"/>
  <path d="M 13 6.449 V 0.551 A 0.375 0.375 90 0 1 13.615 0.263 L 17.155 3.212 C 17.335 3.362 17.335 3.638 17.155 3.788 L 13.615 6.737 A 0.375 0.375 90 0 1 13 6.449 Z"/>
  <path d="M 13 15.449 V 9.551 A 0.375 0.375 90 0 1 13.615 9.263 L 17.155 12.212 C 17.335 12.362 17.335 12.638 17.155 12.788 L 13.615 15.737 A 0.375 0.375 90 0 1 13 15.449 Z"/>
</svg>