<svg xmlns="http://www.w3.org/2000/svg" style='height:auto;' viewBox="100 -960 760 960">
<path xmlns="http://www.w3.org/2000/svg" d="M480-144q-60 0-102-42t-42-102q0-60 42-102t102-42q60 0 102 42t42 102q0 60-42 102t-102 42Zm.212-72Q510-216 531-237.212q21-21.213 21-51Q552-318 530.788-339q-21.213-21-51-21Q450-360 429-338.788q-21 21.213-21 51Q408-258 429.212-237q21.213 21 51 21ZM157-611l-50-50q73-74 168.552-114.5 95.553-40.5 204.5-40.5Q589-816 684.5-775.5 780-735 853-661l-51 51q-63-63-145.5-98.5T480-744q-94 0-177 35t-146 98Zm510 136q-38-35-85-56t-102.5-21q-55.5 0-102 21T293-475l-51-51q48-46 107.5-72t130-26q70.5 0 130.5 26t108 72l-51 51ZM480-288Z"/></svg>