<svg xmlns="http://www.w3.org/2000/svg" height="20" viewBox="50 -910 860 860" width="20"><path d="M480-480Zm312 288H552q0-18-1.5-36t-4.5-36h246v-432H168v54q-18-3-36-4.5T96-648v-48q0-29.7 21.15-50.85Q138.3-768 168-768h624q29.7 0 50.85 21.162Q864-725.676 864-695.96v432.243Q864-234 842.85-213T792-192Zm-696 0v-96q40 0 68 28t28 68H96Zm168 0q0-70-49.14-119T96-360v-72q100 0 170 69.857T336-192h-72Zm144 0q0-64.806-24.5-121.403Q359-370 316.5-412.5q-42.5-42.5-99.097-67Q160.806-504 96-504v-72q80 0 149.685 30.052 69.685 30.051 121.948 82.315 52.264 52.263 82.315 121.948Q480-272 480-192h-72Z"/></svg>