<svg xmlns="http://www.w3.org/2000/svg" style="width:23px;" height="20" viewBox="50 -910 860 860" width="20"><path d="M479.774-288Q400-288 344-344.226t-56-136Q288-560 344.226-616t136-56Q560-672 616-615.774t56 136Q672-400 615.774-344t-136 56ZM84-444q-15.3 0-25.65-10.289Q48-464.579 48-479.789 48-495 58.35-505.5 68.7-516 84-516h96q15.3 0 25.65 10.289 10.35 10.29 10.35 25.5Q216-465 205.65-454.5 195.3-444 180-444H84Zm696 0q-15.3 0-25.65-10.289-10.35-10.29-10.35-25.5Q744-495 754.35-505.5 764.7-516 780-516h96q15.3 0 25.65 10.289 10.35 10.29 10.35 25.5Q912-465 901.65-454.5 891.3-444 876-444h-96ZM480.211-744Q465-744 454.5-754.35 444-764.7 444-780v-96q0-15.3 10.289-25.65 10.29-10.35 25.5-10.35Q495-912 505.5-901.65 516-891.3 516-876v96q0 15.3-10.289 25.65-10.29 10.35-25.5 10.35Zm0 696Q465-48 454.5-58.35 444-68.7 444-84v-96q0-15.3 10.289-25.65 10.29-10.35 25.5-10.35Q495-216 505.5-205.65 516-195.3 516-180v96q0 15.3-10.289 25.65Q495.421-48 480.211-48ZM242-667l-50-51q-11-10-11-24.5t11-25.5q10.435-11 25.217-11Q232-779 242-768l51 50q11 10.941 11 25.529 0 14.589-11 25.53Q283-656 268-656t-26-11Zm476 475-51-50q-11-10.667-11-25.333Q656-282 667-293q10-11 25-11t26 11l50 51q11 10 11 24.5T768.478-192Q757-181 743-181q-14 0-25-11Zm-51.059-475Q656-677 656-692t11-26l51-50q11-11 25-10.5t25 10.543Q779-757 779-743t-11 25l-50 51q-10.941 11-25.529 11-14.589 0-25.53-11ZM192-192q-11-10.435-11-25.217Q181-232 192-242l50-51q10.667-10 25.333-10Q282-303 293-293q11 11 10.542 25.667Q303.083-252.667 293-242l-51 50q-10 11-24.5 11T192-192Z"/></svg>