<?xml version="1.0" encoding="utf-8"?>
<svg viewBox="-20 110 1960 1570" style='min-width:26px;height:auto;' xmlns="http://www.w3.org/2000/svg"><path d="M650 410 L1350 775 L650 1140 Z M1792 1248v-960q0-13-9.5-22.5t-22.5-9.5h-1600q-13 0-22.5 9.5t-9.5 22.5v960q0 13 9.5 22.5t22.5 9.5h1600q13 0 22.5-9.5t9.5-22.5zm128-960v960q0 66-47 113t-113 47h-736v128h352q14 0 23 9t9 23v64q0 14-9 23t-23 9h-832q-14 0-23-9t-9-23v-64q0-14 9-23t23-9h352v-128h-736q-66 0-113-47t-47-113v-960q0-66 47-113t113-47h1600q66 0 113 47t47 113z"/></svg>